{"asset":{"version":"2.0","generator":"babylon.js glTF exporter for 3ds max 2018 v1.3.33"},"scene":0,"scenes":[{"nodes":[0,1,2],"extensions":{}}],"nodes":[{"mesh":0,"translation":[0.0,0.0,0.0],"rotation":[0.0,0.0,0.0,1.0],"scale":[1.0,1.0,1.0],"name":"Grass1_LOD0"},{"mesh":1,"translation":[0.0,0.0,0.0],"rotation":[0.0,0.0,0.0,1.0],"scale":[1.0,1.0,1.0],"name":"Grass1_LOD1"},{"translation":[0.0,0.0,0.0],"rotation":[0.0,0.0,0.0,1.0],"scale":[1.0,1.0,1.0],"name":"Default light"}],"meshes":[{"primitives":[{"attributes":{"POSITION":1,"NORMAL":2,"TEXCOORD_0":3,"TEXCOORD_1":4},"indices":0,"mode":4,"material":0}],"name":"Grass1_LOD0"},{"primitives":[{"attributes":{"POSITION":6,"NORMAL":7,"TEXCOORD_0":8,"TEXCOORD_1":9},"indices":5,"mode":4,"material":0}],"name":"Grass1_LOD1"}],"accessors":[{"bufferView":0,"componentType":5123,"count":672,"type":"SCALAR","name":"accessorIndices"},{"bufferView":1,"componentType":5126,"count":672,"max":[41.3307343,15.9055433,37.88429],"min":[-43.5180435,-0.613604844,-42.6776772],"type":"VEC3","name":"accessorPositions"},{"bufferView":1,"byteOffset":8064,"componentType":5126,"count":672,"type":"VEC3","name":"accessorNormals"},{"bufferView":2,"componentType":5126,"count":672,"type":"VEC2","name":"accessorUVs"},{"bufferView":2,"byteOffset":5376,"componentType":5126,"count":672,"type":"VEC2","name":"accessorUV2s"},{"bufferView":0,"byteOffset":1344,"componentType":5123,"count":141,"type":"SCALAR","name":"accessorIndices"},{"bufferView":1,"byteOffset":16128,"componentType":5126,"count":141,"max":[41.3307343,15.9055433,37.88429],"min":[-43.5180435,-0.613604844,-42.6776772],"type":"VEC3","name":"accessorPositions"},{"bufferView":1,"byteOffset":17820,"componentType":5126,"count":141,"type":"VEC3","name":"accessorNormals"},{"bufferView":2,"byteOffset":10752,"componentType":5126,"count":141,"type":"VEC2","name":"accessorUVs"},{"bufferView":2,"byteOffset":11880,"componentType":5126,"count":141,"type":"VEC2","name":"accessorUV2s"}],"bufferViews":[{"buffer":0,"byteLength":1628,"name":"bufferViewScalar"},{"buffer":0,"byteOffset":1628,"byteLength":19512,"byteStride":12,"name":"bufferViewFloatVec3"},{"buffer":0,"byteOffset":21140,"byteLength":13008,"byteStride":8,"name":"bufferViewFloatVec2"}],"buffers":[{"uri":"grass1.bin","byteLength":34148}],"materials":[{"pbrMetallicRoughness":{"baseColorFactor":[1.0,1.0,1.0,1.0],"baseColorTexture":{"index":0,"texCoord":0},"metallicFactor":0.0,"roughnessFactor":0.9},"emissiveFactor":[0.0,0.0,0.0],"alphaMode":"BLEND","name":"14 - Default11"}],"textures":[{"sampler":0,"source":0,"name":"Grass1_diffuse.png"}],"images":[{"uri":"Grass1_diffuse.png"}],"samplers":[{"magFilter":9729,"minFilter":9987,"wrapS":10497,"wrapT":10497}]}