{"asset":{"version":"2.0","generator":"babylon.js glTF exporter for 3ds max 2018 v1.3.33"},"scene":0,"scenes":[{"nodes":[0,1],"extensions":{}}],"nodes":[{"mesh":0,"translation":[-0.108623505,0.0,0.147184372],"rotation":[0.7071068,0.0,0.0,0.7071067],"scale":[2.5093,2.5093,2.5093],"name":"_LOD0"},{"translation":[0.0,0.0,0.0],"rotation":[0.0,0.0,0.0,1.0],"scale":[1.0,1.0,1.0],"name":"Default light"}],"meshes":[{"primitives":[{"attributes":{"POSITION":1,"NORMAL":2,"TEXCOORD_0":3},"indices":0,"mode":4,"material":0}],"name":"_LOD0"}],"accessors":[{"bufferView":0,"componentType":5123,"count":2736,"type":"SCALAR","name":"accessorIndices"},{"bufferView":1,"componentType":5126,"count":2736,"max":[15.67397,17.1110344,3.77475828E-15],"min":[-16.45367,-14.5013628,-37.4878235],"type":"VEC3","name":"accessorPositions"},{"bufferView":1,"byteOffset":32832,"componentType":5126,"count":2736,"type":"VEC3","name":"accessorNormals"},{"bufferView":2,"componentType":5126,"count":2736,"type":"VEC2","name":"accessorUVs"}],"bufferViews":[{"buffer":0,"byteLength":5472,"name":"bufferViewScalar"},{"buffer":0,"byteOffset":5472,"byteLength":65664,"byteStride":12,"name":"bufferViewFloatVec3"},{"buffer":0,"byteOffset":71136,"byteLength":21888,"byteStride":8,"name":"bufferViewFloatVec2"}],"buffers":[{"uri":"tree3.bin","byteLength":93024}],"materials":[{"pbrMetallicRoughness":{"baseColorFactor":[1.0,1.0,1.0,1.0],"baseColorTexture":{"index":0,"texCoord":0},"metallicFactor":0.0,"roughnessFactor":0.9},"emissiveFactor":[0.0,0.0,0.0],"alphaMode":"BLEND","name":"Material #25"}],"textures":[{"sampler":0,"source":0,"name":"tree3_diffuse.png"}],"images":[{"uri":"tree3_diffuse.png"}],"samplers":[{"magFilter":9729,"minFilter":9987,"wrapS":10497,"wrapT":10497}]}